<?xml version="1.0" encoding="utf-8"?>
<!-- Generator: Adobe Illustrator 22.1.0, SVG Export Plug-In . SVG Version: 6.00 Build 0)  -->
<svg version="1.1" id="圖層_1" xmlns="http://www.w3.org/2000/svg" xmlns:xlink="http://www.w3.org/1999/xlink" x="0px" y="0px"
	 viewBox="0 0 1400 220" style="enable-background:new 0 0 1400 220;" xml:space="preserve">
<style type="text/css">
	.st0{fill:#00E4BC;}
	.st1{enable-background:new    ;}
	.st2{fill:#FFFFFF;}
</style>
<g id="圖層_1_1_">
	<g>
		<path class="st0" d="M292.5,32.9h34.9l0,0L357,178.6c0,0,0,0.1-0.1,0.1h-45.8l0,0l-2.5-13.1l0,0h-44.1l0,0l-7.1,13.1l0,0h-45.8
			c0,0,0,0,0-0.1L292.5,32.9L292.5,32.9z M247.2,161.1l6-10.9l0,0h72.1l0,0l2.2,10.9l0,0h6c0,0,0.1,0,0.1-0.1L311.1,50.4l0,0h-8.2
			l0,0l-61.7,110.7v0.1L247.2,161.1C247.1,161.2,247.2,161.2,247.2,161.1z M306,55.7l18.3,89.2c0,0,0,0.1-0.1,0.1h-68.1
			c0,0,0,0,0-0.1L306,55.7C305.9,55.7,306,55.7,306,55.7z M304.1,133.4l-6.2-31.4h-0.1l-17.3,31.4v0.1L304.1,133.4L304.1,133.4z"/>
		<path class="st0" d="M390.6,133.4c3,1,6.2,1.8,9.6,2.4l0,0c2.8,0.7,6,1.3,9.6,1.7s7.3,0.7,11.1,0.7c6.7,0,10.5-2.5,11.4-7.4
			c0.3-1.9-0.3-3.8-2-5.8s-3.9-4.2-6.6-6.6s-5.6-5.1-8.6-8c-3.1-2.9-5.8-6.3-8.3-10.1c-2.5-3.8-4.3-8-5.5-12.8
			c-1.2-4.7-1.3-10.2-0.2-16.3c1.2-6.8,3.5-12.9,6.9-18.1s7.6-9.6,12.6-13.1s10.6-6.2,16.8-8c6.2-1.8,12.7-2.7,19.4-2.7
			c3.5,0,7,0.2,10.4,0.5c3.4,0.4,6.5,0.7,9.2,1c3.1,0.4,6.2,0.9,9.1,1.3l0,0L478.3,73c0,0,0,0-0.1,0c-1.1-0.1-2.4-0.3-3.8-0.4
			c-1.1-0.1-2.4-0.3-3.9-0.4c-1.4-0.1-2.9-0.2-4.6-0.2c-0.9,0-2,0-3.3,0.1s-2.6,0.3-3.8,0.5c-1.2,0.3-2.3,0.8-3.3,1.5
			s-1.6,1.7-1.9,3.1c-0.2,1.2,0.5,2.6,2.2,4.4c1.7,1.7,3.7,3.8,6.1,6.1c2.4,2.3,5.1,5,8,8.1s5.4,6.6,7.5,10.5s3.8,8.4,4.9,13.3
			c1.1,5,1.1,10.5,0,16.6c-1.1,6.4-3.2,12.4-6.2,18s-7.1,10.5-12.1,14.6c-5,4.2-11.1,7.4-18.2,9.8c-7.1,2.4-15.3,3.6-24.5,3.6
			c-5.5,0-10.6-0.3-15.3-0.8c-4.6-0.5-8.7-1.1-12.2-1.9c-4.1-0.7-7.8-1.6-11.1-2.6l0,0L390.6,133.4
			C390.5,133.4,390.6,133.4,390.6,133.4z M404.3,159.6L404.3,159.6c2,0.5,4.1,0.8,6.4,1.1c2,0.3,4.1,0.5,6.3,0.8
			c2.2,0.2,4.5,0.3,6.8,0.3c4.1,0,8.1-0.5,12.2-1.4c4-0.9,7.8-2.5,11.2-4.7c3.4-2.2,6.4-5,8.8-8.4s4.1-7.6,4.9-12.6
			c0.7-4.2,0.4-8.2-1-12s-3.5-7.4-6.2-10.9s-5.6-6.8-8.7-10.1c-3.2-3.2-6.1-6.4-8.8-9.7s-4.8-6.6-6.4-9.8c-1.5-3.3-2-6.7-1.4-10.2
			c0.9-5.2,3.3-9.3,7.2-12.1c3.9-2.8,9.5-4.3,16.9-4.3c1.2,0,2.4,0,3.6,0.1s2.4,0.2,3.5,0.3s2.3,0.2,3.4,0.2c0,0,0,0,0.1,0l1-5.6
			l0,0c-1,0-2.1-0.1-3.2-0.2c-1-0.1-2.1-0.3-3.3-0.3c-1.2-0.1-2.5-0.1-3.8-0.1c-7.9,0-14.7,1.8-20.4,5.4c-5.7,3.6-9.3,9.1-10.6,16.7
			c-0.7,4.1-0.3,7.9,1.1,11.5c1.5,3.6,3.6,7.1,6.2,10.5c2.7,3.4,5.6,6.7,8.7,9.9c3.1,3.2,6.1,6.4,8.8,9.7c2.7,3.3,4.8,6.7,6.3,10.2
			s1.9,7.1,1.2,10.9c-1.2,7-4.5,12.3-9.9,16c-5.4,3.6-12.2,5.5-20.5,5.5c-5,0-9.4-0.4-13.4-1.1c-2.1-0.3-4.1-0.6-6.1-1.1h-0.1
			L404.3,159.6z"/>
		<path class="st0" d="M612.3,133.4c3,1,6.2,1.8,9.6,2.4l0,0c2.8,0.7,6,1.3,9.6,1.7s7.3,0.7,11.1,0.7c6.7,0,10.5-2.5,11.4-7.4
			c0.3-1.9-0.3-3.8-2-5.8s-3.9-4.2-6.6-6.6c-2.7-2.4-5.6-5.1-8.6-8c-3.1-2.9-5.8-6.3-8.3-10.1c-2.5-3.8-4.3-8-5.5-12.8
			c-1.2-4.7-1.3-10.2-0.2-16.3c1.2-6.8,3.5-12.9,6.9-18.1s7.6-9.6,12.6-13.1s10.6-6.2,16.8-8s12.7-2.7,19.4-2.7
			c3.5,0,7,0.2,10.4,0.5c3.4,0.4,6.5,0.7,9.2,1c3.1,0.4,6.2,0.9,9.1,1.3l0,0L700,73c0,0,0,0-0.1,0c-1.1-0.1-2.4-0.3-3.8-0.4
			c-1.1-0.1-2.4-0.3-3.9-0.4c-1.4-0.1-2.9-0.2-4.6-0.2c-0.9,0-2,0-3.3,0.1s-2.6,0.3-3.8,0.5c-1.2,0.3-2.3,0.8-3.3,1.5
			s-1.6,1.7-1.9,3.1c-0.2,1.2,0.5,2.6,2.2,4.4c1.7,1.7,3.7,3.8,6.1,6.1c2.4,2.3,5.1,5,8,8.1s5.4,6.6,7.5,10.5s3.8,8.4,4.9,13.3
			c1.1,5,1.1,10.5,0,16.6c-1.1,6.4-3.2,12.4-6.2,18s-7.1,10.5-12.1,14.6c-5,4.2-11.1,7.4-18.2,9.8c-7.1,2.4-15.3,3.6-24.5,3.6
			c-5.5,0-10.6-0.3-15.3-0.8c-4.6-0.5-8.7-1.1-12.2-1.9c-4.1-0.7-7.8-1.6-11.1-2.6l0,0L612.3,133.4
			C612.2,133.4,612.2,133.4,612.3,133.4z M626,159.6C625.9,159.6,626,159.6,626,159.6c2,0.5,4.1,0.8,6.4,1.1c2,0.3,4.1,0.5,6.3,0.8
			c2.2,0.2,4.5,0.3,6.8,0.3c4.1,0,8.1-0.5,12.2-1.4c4-0.9,7.8-2.5,11.2-4.7s6.4-5,8.8-8.4c2.4-3.4,4.1-7.6,4.9-12.6
			c0.7-4.2,0.4-8.2-1-12s-3.5-7.4-6.2-10.9s-5.6-6.8-8.7-10.1c-3.2-3.2-6.1-6.4-8.8-9.7s-4.8-6.6-6.4-9.8c-1.5-3.3-2-6.7-1.4-10.2
			c0.9-5.2,3.3-9.3,7.2-12.1s9.5-4.3,16.9-4.3c1.2,0,2.4,0,3.6,0.1c1.2,0.1,2.4,0.2,3.5,0.3s2.3,0.2,3.4,0.2c0,0,0,0,0.1,0l1-5.6
			l0,0c-1,0-2.1-0.1-3.2-0.2c-1-0.1-2.1-0.3-3.3-0.3c-1.2-0.1-2.5-0.1-3.8-0.1c-7.9,0-14.7,1.8-20.4,5.4c-5.7,3.6-9.3,9.1-10.6,16.7
			c-0.7,4.1-0.3,7.9,1.1,11.5c1.5,3.6,3.6,7.1,6.2,10.5c2.7,3.4,5.6,6.7,8.7,9.9c3.2,3.2,6.1,6.4,8.8,9.7c2.7,3.3,4.8,6.7,6.3,10.2
			s1.9,7.1,1.2,10.9c-1.2,7-4.5,12.3-9.9,16c-5.4,3.6-12.2,5.5-20.5,5.5c-5,0-9.4-0.4-13.4-1.1c-2.1-0.3-4.1-0.6-6.1-1.1h-0.1
			L626,159.6z"/>
		<path class="st0" d="M219.6,97.5h-26h-2.2c-4.4,0-7.8-3.2-7.4-7.6c0.3-4.5,4.1-8.3,8.4-9.2c0-0.1,2.7-0.1,2.7-0.2h0.7h9.9
			c4.9,0,9.5-4.1,10.1-9c0.5-4.5-2.9-8-7.4-8h-19.1h-10.6c-4.5,0-7.9-3.4-7.4-8c0.6-4.9,5.2-9,10.1-9h6.8h4.6c0.6,0,1.1-0.1,1.7-0.2
			l0,0h2.1c4.5,0,9.1-3.4,10.2-8c1.2-4.9-2-9-6.9-9h-5.2h-4.9h-5.2c-0.6,0-1.1,0.1-1.7,0.2l0,0h-59l0,0c-1.6-0.1-3.2-0.2-4.8-0.2
			l0,0l0,0l0,0l0,0c-1.6,0-3.3,0.1-4.9,0.2h-0.1l0,0h0.1c-8.6,0.5-17.1,2.4-25.4,5.7l0,0c-0.2,0.1-0.3,0.1-0.5,0.2
			c-0.6,0.2-1.2,0.5-1.8,0.8l0,0c-0.7,0.3-1.5,0.6-2.2,0.9c-1,0.5-2.1,1-3.1,1.5c-0.2,0.1-0.5,0.2-0.7,0.4c-0.9,0.5-1.8,0.9-2.7,1.4
			c-0.2,0.1-0.5,0.2-0.7,0.4c-1,0.6-2,1.1-3,1.7c-4.6,2.8-9,5.9-13.1,9.4c-5.1,4.3-9.7,9.1-13.8,14.4c-2.5,3.2-4.8,6.5-6.8,9.9
			c0,0,0,0,0,0.1C34.8,85.6,31,95.5,29.2,106c0,0,0,0,0,0.1l0,0l0,0l0,0c-1.8,10.5-1.6,20.4,0.8,29.7v0.1c1.1,4.5,2.7,8.8,4.7,12.8
			c0.1,0.1,0.1,0.3,0.2,0.4c0.4,0.9,0.9,1.7,1.3,2.5c1.7,3,3.6,5.9,5.8,8.5c1.6,1.9,3.2,3.7,5,5.3l0.1,0.1H46l2.1,0.9
			c0.1,0.1,0.1,0.1,0.2,0.2c-0.1-0.1-0.2-0.2-0.4-0.3c1.3,1.1,2.6,2.2,3.9,3.3c3.5,2.7,7.3,5,11.4,6.9c0.1,0,0.2,0.1,0.3,0.1
			c7.1,3.3,14.8,5.2,23.2,5.8l0,0l0.5,0.2h4.9h68c4.6,0,9.1-3.6,10-8.2c0.8-3.9-0.3-7.6-3.6-8.8H166h-8.7h7.7h-7.7l0,0h-1.9H155
			h-4.4c-4.5,0-7.9-3.4-7.4-8c0.6-4.9,5.2-9,10.1-9h3h31.5c4.9,0,9.5-4.1,10.1-9c0.5-4.5-2.9-8-7.4-8h-9.3l0,0h-5.8
			c-4.5,0-7.9-3.4-7.4-8c0.6-4.9,5.2-9,10.1-9h39c4.9,0,9.5-4.1,10.1-9C227.6,100.9,224.2,97.5,219.6,97.5z M153.4,127.6
			c-4.1,6.8-9.2,12.7-15.2,17.8c-6,5.1-12.6,9.1-19.9,12s-14.8,4.4-22.5,4.4s-14.7-1.5-21-4.4s-11.5-6.9-15.7-12s-7.2-11-8.9-17.8
			c-1.7-6.8-1.9-14-0.5-21.7s4.1-15,8.2-21.7C62,77.4,67,71.4,73,66.3s12.6-9.1,19.9-12s14.8-4.4,22.5-4.4s14.7,1.5,21,4.4
			c6.3,2.9,11.5,6.9,15.7,12s7.2,11,8.9,17.8s1.9,14,0.5,21.7C160.2,113.6,157.5,120.8,153.4,127.6z"/>
		<path class="st0" d="M155.4,86.3c-1.6-6-4.2-11.4-8-16s-8.5-8.2-14-10.8c-5.6-2.6-11.9-3.9-18.9-3.9s-13.7,1.3-20.3,3.9
			c-6.5,2.6-12.5,6.2-17.9,10.8s-9.9,9.9-13.6,16c-3.7,6-6.2,12.6-7.4,19.6s-1.1,13.5,0.5,19.6c1.6,6,4.2,11.4,8,16
			c3.8,4.6,8.5,8.2,14,10.8c5.6,2.6,11.9,3.9,18.9,3.9s13.7-1.3,20.3-3.9c6.5-2.6,12.5-6.2,17.9-10.8s9.9-9.9,13.6-16
			c3.7-6,6.2-12.6,7.4-19.6C157.1,98.9,157,92.4,155.4,86.3z M131.7,117.8c-2.3,3.7-5,7-8.3,9.7c-3.3,2.8-6.9,5-10.9,6.6
			s-8.1,2.4-12.3,2.4c-4.2,0-8.1-0.8-11.5-2.4c-3.4-1.6-6.3-3.8-8.6-6.6c-2.3-2.8-3.9-6-4.8-9.7s-1-7.7-0.3-11.9
			c0.7-4.2,2.2-8.2,4.5-11.9c2.3-3.7,5-7,8.3-9.7c3.3-2.8,6.9-5,10.9-6.6s8.1-2.4,12.3-2.4c4.2,0,8.1,0.8,11.5,2.4s6.3,3.8,8.6,6.6
			c2.3,2.8,3.9,6,4.8,9.7c0.9,3.7,1,7.7,0.3,11.9C135.5,110.1,134,114.1,131.7,117.8z"/>
		<path class="st0" d="M537.2,75.7h40.6l0,0L559.6,179c0,0,0,0-0.1,0H519l0,0L537.2,75.7C537.2,75.8,537.2,75.7,537.2,75.7z
			 M543.9,166.7l13.8-78.5l0,0h-4.6c0,0,0,0-0.1,0l-13.8,78.5l0,0H543.9C543.8,166.7,543.9,166.7,543.9,166.7z"/>
		<path class="st0" d="M564.6,62.5c-16.5,4.4-27.3-2.6-31.8-5.1l0,0l-6.1,2.5h-0.1l1-7.4l0,0l5.1-2.2l0,0c3.8-6.2,13.1-49.1,72-25
			c0,0,0,0,0,0.1C586.8,42.6,584.1,56.9,564.6,62.5z M587.1,27.4c-10.6,0.5-15.9,2.9-23.1,9.7l0,0c-4.7,3.8-13.2,11.8-17.4,13.1
			c-4.1,1.3-8.2,1.9,0.2,1.1l0,0c12.7-1.9,16.5-6.8,24.1-13.8c5-4.5,9.7-7.1,16.2-9C587.2,28.5,593.6,26.5,587.1,27.4L587.1,27.4z"
			/>
	</g>
	<g class="st1">
		<path class="st2" d="M749.2,140.3c-2.8,12.8-6.4,23.5-10.8,31.9l-9.4-3c3.8-7.2,7.1-15.6,9.9-25.3c0.4-1.2,0.9-2.7,1.4-4.5
			L749.2,140.3z M790.7,80.6c-12,18.4-23.4,32.9-34.2,43.3l7.7-0.8c3.6-0.4,6.3-1,8.1-1.8l-1.4-4.7l-1.5-4.3l9.8-2.5
			c0.2,0.8,0.4,1.3,0.6,1.8c1.4,3.8,2.4,6.5,2.9,8.1l3.1,10.7l-10.8,4.3l-0.5-2.4l-0.4-2c-8,2-18.1,3.6-30.4,4.7
			c-1.5,0.2-3.2,0.4-5.3,0.6l-0.7-11.1l3.5,0.1l3.4-0.3c1.4-1.5,2.6-2.7,3.5-3.6c5.1-5.3,10.7-11.9,16.9-20
			c-3.9,0.8-7.3,1.1-10.1,1.1l-10.7,0.8l0-10.4h3.3l2.5-0.1c8.4-10.2,15.6-21.5,21.4-33.8l10.9,2.5c-8.7,14.2-15.9,24.5-21.7,31.1
			l5.9-0.4l5.4-0.5c1.7-2.3,3.3-4.6,4.8-7l4.1-7L790.7,80.6z M750.4,167.7l1.7-14c0.8-4.6,1.1-9.1,0.9-13.5l9-1.1
			c0.2,7.5-0.1,15.7-0.8,24.8c-0.1,0.6-0.2,1.3-0.1,2.3L750.4,167.7z M775.2,159l-6.9,2.1l-0.5-10.9c-0.4-5.5-0.9-9.3-1.5-11.2
			l8.7-2l2.1,10.2l0.6,4.9c5.8-2.7,12.7-7.1,20.7-13.3c0.6-0.5,1.3-1.1,2.2-1.8l2.8,9.7c-4.8,3.9-9.4,7.1-13.7,9.8l-12.6,7.9
			L775.2,159z M827.7,129.1c4.7-3.3,9.7-7.6,15.1-13l6.3,7.7c-6.6,6-12.5,10.7-17.8,13.8c4.1,7.6,9,14.1,14.8,19.4l-8.3,9.3
			c-3.1-3.2-6.2-7.1-9.1-11.7c-3-4.6-5.9-12.2-8.7-22.8l-4.8,27l-0.5,2.6c-1.2,7-5.6,10.4-13,10.4h-12.1l-0.7-11.6l11.2,0.5
			c2.5,0,4-1.2,4.4-3.5l7.9-44.9h-30.1l1.8-10.1H826l3.6-8.1H792l17.7-37h10.7l-3.6,7.5h36l-15.5,37.5h18.1l-1.8,10.1h-30.2l-0.2,1
			C824.4,120.5,825.8,125.7,827.7,129.1z M795.6,136.9l-4-7.9c-1.3-2.3-2.9-4.9-4.8-7.8l9.4-6c0.7,0.9,1.2,1.6,1.6,2.1
			c1.7,2.2,2.9,3.9,3.6,5l4.6,7.5L795.6,136.9z M811.9,75l-4.4,9.4h26.2l4.1-9.4H811.9z"/>
		<path class="st2" d="M894.5,130.1c-7.6,17.7-15.5,31.7-23.9,42.1l-8.2-9.2c7.4-9.5,15-22.6,23-39.2L894.5,130.1z M890.6,113.4
			l-8.8-6.9c-3.4-2.6-6.5-4.7-9.2-6.4l8.9-9.8l9.3,5.3c1.4,0.8,3.4,2.2,5.8,4c0.7,0.6,1.8,1.4,3.1,2.4L890.6,113.4z M901.5,81.9
			c-1-0.9-1.8-1.7-2.5-2.3c-5.3-4.9-10.2-8.8-14.5-11.8l8.9-9.2l9.4,6.2c2.6,1.6,5.3,3.7,8.3,6.3L901.5,81.9z M927.6,109l-0.3,1.8
			c-2.3,13-5.7,24.3-10.1,33.8c-4.5,9.6-11,18.9-19.8,27.9l-8.7-8.4c8.7-8.7,15-17.3,18.7-25.7c3.7-8.4,6.7-19.1,9-32.1l8.6-48.8
			h11.7L927.6,109z M916.5,88.5c-0.7,2.4-1.2,4.4-1.7,5.9c-3.4,12.8-7.1,23.1-11.1,30.7l-9.9-3.9c5.9-11.3,10.3-22.7,13.2-34.2
			L916.5,88.5z M929.1,122.4c0.2-2,0.4-3.7,0.7-5.2c0.7-5.5,1.3-9.7,1.8-12.6c1.2-6.8,1.6-12.2,1.1-16.4l8.6-0.9
			c0.1,6.3-0.1,11.4-0.5,15.2l-1.7,17.7L929.1,122.4z M932.5,166.8l18.4-104.7h11.8l-18.4,104.7H932.5z M957.1,122.6
			c1.9-14.2,2.7-25.3,2.5-33.5l8.7-1c0.3,7.3-0.1,17.2-1.2,29.8c-0.2,0.9-0.3,2.1-0.4,3.5L957.1,122.6z M959.4,173.1l20.4-115.7h12
			l-20.4,115.7H959.4z"/>
		<path class="st2" d="M1109,162.1l-9.6,11.1c-17-4.5-31.9-13-44.9-25.3c-16.2,10.8-34.6,19.3-55.2,25.4l-6.1-11.9
			c18.8-3.7,36.5-10.8,53.2-21.3c-6.4-6.7-11.8-15.7-16.4-27l-7.8,5.5c-1.9,1.3-4.5,2.9-7.6,4.8c-0.9,0.5-2.1,1.2-3.6,2.1l-8.5-8.2
			c17.9-9.8,31.7-20.5,41.4-31.9l9.4,6.2l-6.6,6.9l-6.7,6.5c4.8,11.4,10.5,20.6,17,27.5c8-5.6,16.8-15.3,26.2-28.9l-5.1-5.3
			c-1.8-1.9-3.6-3.6-5.6-5.2l10.4-6.9l3.1,2.6c10.2,8.9,18.7,17.4,25.5,25.7l3.7,4.5l-11.2,8.7c-0.8-0.9-1.4-1.7-1.8-2.4
			c-2.2-2.9-3.8-5-4.8-6.2l-6.7-7.5c-8.5,11.8-17,21.4-25.6,28.7C1076.3,149.6,1091,156.9,1109,162.1z M1123.1,70.1l-1.9,10.9
			h-111.8l1.9-10.9h51.6c-1-5.2-2.2-8.9-3.7-11.2l12.6-1.4c0.1,0.5,0.2,0.9,0.3,1.1c1,2.8,1.6,4.6,1.8,5.4l1.6,6H1123.1z"/>
		<path class="st2" d="M1131.1,127c15.8-4.4,28-10.4,36.7-18.1h-20l8.3-46.9h90.2l-8.3,46.9h-55.1l-4.4,4.4c-1.2,1.2-2.6,2.3-4,3.5
			c-0.3,0.2-0.7,0.5-1.2,0.9h69.1c-2.6,13.6-5.2,24.6-7.5,33.1c-2.4,8.5-5.5,14.2-9.3,17.2c-3.8,3-10.5,4.5-20.1,4.5
			c-3.4,0-5.5,0-6.3-0.1l-1.8-11.4c3.3,0.3,7.6,0.5,13,0.5c4,0,7-1.3,8.9-3.9c1.9-2.6,4.9-12.7,9-30.3h-8.7
			c-4.3,7.5-10.3,14.5-18.1,21.1c-7.8,6.6-16.9,12.3-27.3,16.9c-10.4,4.7-17.1,7-19.9,7l-5.6-9.8c15.9-4.5,28-9.4,36.2-14.7
			c8.3-5.2,15.6-12.1,21.9-20.6h-14.1c-6.6,7.1-13.8,12.9-21.6,17.2c-7.8,4.4-18.5,8.7-32.2,13l-5-10.2
			c19.7-4.9,34.6-11.7,44.7-20.3h-18c-5.7,3.2-13.7,6.7-24.1,10.6L1131.1,127z M1161.6,99h65.8l1.7-9.7h-65.8L1161.6,99z
			 M1232.3,71.6h-65.8l-1.5,8.7h65.8L1232.3,71.6z"/>
		<path class="st2" d="M1283.2,129.9c-4.2,15.3-10.1,29.5-17.7,42.6l-9.5-7.4c9.1-15.3,15.3-32.6,18.7-52.1l8.1-46.2
			c20.2-1.5,34.6-3.8,43.1-6.9l3.3,10.6c-10.8,2.6-21.5,4.4-32.2,5.5c-1.2,0.2-2.7,0.4-4.4,0.6l-2.2,12.2h31.4l-7.2,41H1283.2z
			 M1285.3,118.9h20l3.4-19.1h-20L1285.3,118.9z M1358.4,173.1h-11.7l11.3-64h-18.6l-0.1,0.8l-0.4,2.5c-2.5,14.3-5.5,25.7-9,34
			c-3.4,8.3-9.1,17.1-17,26.2l-8.9-7.9c6.8-7.1,11.8-14.3,15.1-21.6c3.3-7.3,6-17.4,8.3-30.2c0.2-1.3,0.4-2.6,0.6-3.9
			c0.2-1.3,0.4-2.5,0.6-3.8l6.8-38.6c2.1-0.2,3.9-0.3,5.3-0.4c16.8-1.3,31.1-3.9,42.8-7.5l3.3,10.4c-10.5,2.8-23.3,5.2-38.5,7.2
			c-0.9,0.1-1.9,0.2-3.2,0.4l-3.7,21.3h42.3l-2,11.2h-12L1358.4,173.1z"/>
	</g>
</g>
<g id="圖層_2_1_">
</g>
</svg>
